#N canvas 872 137 514 400 10;
#X obj 121 356 dac~;
#X obj 120 327 *~ 0.3;
#X obj 119 67 phasor~;
#X floatatom 119 46 5 0 0 0 - - -;
#X floatatom 179 341 5 0 0 0 - - -;
#X obj 59 239 snapshot~;
#X floatatom 50 275 5 0 0 0 - - -;
#X obj 44 198 metro 20;
#X obj 47 166 tgl 15 0 empty empty empty 17 7 0 10 -262144 -1 -1 1
1;
#X obj 12 257 vsl 15 128 0 512 0 0 empty empty empty 0 -9 0 10 -262144
-1 -1 1960 1;
#X obj 133 267 expr~ ($v1%$v2)/$v2;
#X obj 240 243 expr~ pow(2 \, $v1);
#X msg 240 217 8;
#X obj 259 111 expr~ pow(2 \, $v1);
#X msg 260 87 17;
#X obj 119 138 expr~ floor($v1*$v2 \, 0);
#X msg 118 22 0.125;
#X text 265 266 Volume control;
#X text 355 243 256;
#X text 308 129 131072;
#X obj 120 183 expr~ (($v1*(36364689*($v1>>13&7)&15))/12&128) +((((($v1>>12)^($v1>>12)-2)%11*$v1)/4|$v1>>13)&127)
;
#X connect 1 0 0 0;
#X connect 1 0 0 1;
#X connect 2 0 15 0;
#X connect 3 0 2 0;
#X connect 4 0 1 1;
#X connect 5 0 6 0;
#X connect 6 0 9 0;
#X connect 7 0 5 0;
#X connect 8 0 7 0;
#X connect 10 0 1 0;
#X connect 11 0 10 1;
#X connect 12 0 11 0;
#X connect 13 0 15 1;
#X connect 14 0 13 0;
#X connect 15 0 20 0;
#X connect 16 0 3 0;
#X connect 20 0 10 0;
#X connect 20 0 5 0;
