#N canvas 40 90 1366 667 10;
#X obj -289 194 iter;
#X obj -289 226 % 3;
#X floatatom -242 208 5 0 0 0 - - -;
#N canvas 0 22 450 278 (subpatch) 0;
#X array sosu 32 float 2;
#X coords 0 5 32 0 200 20 1 0 0;
#X restore -375 431 graph;
#X obj -285 399 tabwrite sosu;
#X obj -285 372 pack f f;
#X obj -259 315 f;
#X obj -230 315 + 1;
#X obj -289 107 t b b;
#X msg -187 246 0;
#X obj -289 80 bng 15 250 50 0 empty empty empty 17 7 0 10 -262144
-1 -1;
#X obj -289 263 t f b;
#X obj 551 296 tabread sosu;
#X floatatom 551 228 5 0 0 0 - - -;
#X obj 553 183 f;
#X obj 587 185 + 1;
#X obj 554 80 tgl 15 0 empty empty empty 17 7 0 10 -262144 -1 -1 0
1;
#X obj 594 258 sel 1;
#X msg 571 154 0;
#X floatatom 551 328 5 0 0 0 - - -;
#X obj 554 111 metro 300;
#X obj 551 358 change;
#X floatatom 551 385 5 0 0 0 - - -;
#X obj 607 391 bng 15 250 50 0 empty empty empty 17 7 0 10 -262144
-1 -1;
#X obj 524 419 sel 2;
#X obj 541 553 *~;
#X obj -15 915 dac~;
#X obj 524 501 line~;
#X floatatom 610 75 5 0 0 0 - - -;
#X obj 472 609 +~;
#X obj 506 549 *~;
#X obj 578 528 pink~;
#X obj 542 576 *~ 1;
#X obj 471 573 *~ 0.5;
#X obj 523 525 osc~ 50;
#X obj 473 648 bp~ 50 0.3;
#X obj 98 182 list-idx;
#X obj 402 300 prime;
#X obj -133 1390 pi;
#X obj 861 351 ratio;
#X obj -111 430 pack f f;
#X obj -84 373 f;
#X obj -55 373 + 1;
#X msg -9 304 0;
#X obj -111 321 t f b;
#X obj -111 253 delta;
#X obj 680 389 osc~;
#X obj 634 483 dac~;
#X floatatom 810 314 5 0 0 0 - - -;
#N canvas 0 22 450 278 (subpatch) 0;
#X array melody 32 float 2;
#X coords 0 5 32 0 200 20 1 0 0;
#X restore -375 477 graph;
#X obj 680 342 * 130;
#X obj 473 685 *~ 1;
#X obj -111 458 tabwrite melody;
#X obj 680 298 tabread melody;
#X obj 810 350 delta;
#X floatatom 810 383 5 0 0 0 - - -;
#X floatatom 810 438 5 0 0 0 - - -;
#X obj 810 405 > 0;
#X obj 861 442 *;
#X obj 861 484 osc~;
#X floatatom 900 382 5 0 0 0 - - -;
#X obj 900 513 osc~;
#X obj 862 529 +~;
#X obj 680 543 +~;
#X obj 676 576 hip~;
#X floatatom 722 576 5 0 0 0 - - -;
#X obj 774 576 *~ 100;
#X obj 773 607 snapshot~;
#X obj -227 107 t b f;
#X floatatom 79 225 5 0 0 0 - - -;
#X obj -227 71 hradio 15 1 0 8 empty empty empty 0 -8 0 10 -262144
-1 -1 0;
#X obj 64 266 /;
#X obj 72 473 pack f f;
#X obj 99 416 f;
#X obj 128 416 + 1;
#X msg 125 331 0;
#X obj 72 364 t f b;
#X obj 72 501 tabwrite test;
#N canvas 0 22 450 300 (subpatch) 0;
#X array test 25 float 3;
#A 0 0.4 0.6 1 1.4 2.2 2.6 3.4 3.8 4.6 5.8 6.2 7.4 8.2 8.6 9.4 10.6
11.8 12.2 13.4 14.2 14.6 15.8 16.6 17.8 27.8;
#X coords 0 40 25 0 200 140 1 0 0;
#X restore -373 571 graph;
#X obj 228 348 wrap;
#X obj 228 498 pack f f;
#X obj 255 441 f;
#X obj 284 441 + 1;
#X msg 330 372 0;
#X obj 228 389 t f b;
#X obj 228 526 tabwrite wrap;
#N canvas 0 22 450 278 (subpatch) 0;
#X array wrap 32 float 2;
#X coords 0 1 32 0 200 20 1 0 0;
#X restore -374 521 graph;
#X obj 232 595 tabread wrap;
#X obj 229 712 osc~;
#X msg -22 213 clear;
#X obj 347 686 line~;
#X obj 235 739 *~;
#X obj 652 706 line~;
#X msg 651 670 1 \, 100;
#X obj 607 753 *~;
#X obj 346 614 bng 15 250 50 0 empty empty empty 17 7 0 10 -262144
-1 -1;
#X obj 516 801 /~ 2;
#X msg 524 464 1 \, 0 1000;
#X obj 400 334 sel 1;
#X obj 393 504 bng 15 250 50 0 empty empty empty 17 7 0 10 -262144
-1 -1;
#X msg 393 540 0.5 \, 0 1000;
#X msg 346 650 1 \, 0 1000;
#X msg -289 140 2 3 5 7 11 13 17 19 23 29 31 37 41 43 47 53 59 61 67
71 73 79 83 89 97 101 103 107 109 113 127 131 137 139;
#X obj 594 227 == 32;
#X obj 1253 73 openpanel;
#X msg 1255 118 read -resize \$1 kick;
#X obj 1253 161 soundfiler;
#X obj 1247 199 openpanel;
#X obj 1247 287 soundfiler;
#X msg 1249 244 read -resize \$1 snare;
#X obj 1102 78 openpanel;
#X obj 1102 166 soundfiler;
#X msg 1104 123 read -resize \$1 hihat;
#N canvas 0 22 450 300 (subpatch) 0;
#X array kick 21340 float 2;
#X coords 0 1 21340 -1 200 140 1 0 0;
#X restore 1137 340 graph;
#N canvas 0 22 450 300 (subpatch) 0;
#X array snare 7915 float 2;
#X coords 0 1 7915 -1 200 140 1 0 0;
#X restore 1349 340 graph;
#N canvas 0 22 450 300 (subpatch) 0;
#X array hihat 10418 float 2;
#X coords 0 1 10418 -1 200 140 1 0 0;
#X restore 1138 510 graph;
#X obj 1101 36 bng 15 250 50 0 empty empty empty 17 7 0 10 -262144
-1 -1;
#X obj 1208 185 bng 15 250 50 0 empty empty empty 17 7 0 10 -262144
-1 -1;
#X obj 1250 18 bng 15 250 50 0 empty empty empty 17 7 0 10 -262144
-1 -1;
#X obj 120 910 tabplay~ kick;
#X obj 120 970 tabplay~ snare;
#X obj 120 1018 tabplay~ hihat;
#X obj 120 877 bng 15 250 50 0 empty empty empty 17 7 0 10 -262144
-1 -1;
#X obj 789 115 expr if;
#X obj -303 1484 random 31;
#X obj -237 1486 random 31;
#X obj -166 1486 random 31;
#X obj -96 1486 random 31;
#X obj -193 1393 bng 15 250 50 0 empty empty empty 17 7 0 10 -262144
-1 -1;
#X obj -362 1527 t b f;
#X msg -362 1554 2 3 5 7 11 13 17 19 23 29 31 37 41 43 47 53 59 61
67 71 73 79 83 89 97 101 103 107 109 113 127 131 137 139;
#X obj -364 1606 list-idx;
#X floatatom -364 1638 5 0 0 0 - - -;
#X obj -229 1617 list-idx;
#X floatatom -229 1649 5 0 0 0 - - -;
#X obj -147 1616 list-idx;
#X floatatom -147 1648 5 0 0 0 - - -;
#X obj -86 1615 list-idx;
#X floatatom -86 1647 5 0 0 0 - - -;
#X obj -253 1533 f;
#X obj -172 1527 f;
#X obj -94 1526 f;
#X obj 351 120 t b f;
#X obj 349 152 uzi 8;
#X obj 345 196 f;
#X obj 374 196 + 1;
#X floatatom 401 157 5 0 0 0 - - -;
#X obj -4 594 list-idx;
#X obj 309 270 list;
#X obj 189 198 t b f;
#X msg -2 102 2 3 5 7 11 13 17 19 23 29 31 37 41 43 47 53 59 61 67
71 73 79 83 89 97 101 103 107 109 113 127 131 137 139;
#X obj -4 627 % 3;
#X obj -4 746 pack f f;
#X obj 26 706 f;
#X obj 55 706 + 1;
#X msg 59 653 0;
#X obj -4 654 t f b;
#X obj -4 781 tabwrite Dline;
#N canvas 0 22 450 278 (subpatch) 0;
#X array Dline 8 float 2;
#X coords 0 5 8 0 200 20 1 0 0;
#X restore -373 753 graph;
#X obj 120 803 tabread Dline;
#X floatatom 284 858 5 0 0 0 - - -;
#X obj 284 793 f;
#X obj 318 795 + 1;
#X obj 325 868 sel 1;
#X msg 302 764 0;
#X obj 325 837 == 8;
#X obj 120 836 sel 1;
#X obj 172 838 sel 2;
#X obj 517 875 dac~;
#X floatatom 730 238 5 0 0 0 - - -;
#X obj 278 669 -;
#X obj 727 375 + 17000;
#X obj 232 632 * 200;
#X floatatom 828 204 5 0 0 0 - - -;
#X msg 351 85 10;
#X obj 930 146 bng 15 250 50 0 empty empty empty 17 7 0 10 -262144
-1 -1;
#X connect 0 0 1 0;
#X connect 0 0 45 0;
#X connect 0 0 71 0;
#X connect 1 0 11 0;
#X connect 2 0 1 1;
#X connect 5 0 4 0;
#X connect 6 0 7 0;
#X connect 6 0 5 1;
#X connect 7 0 6 1;
#X connect 8 0 102 0;
#X connect 9 0 6 1;
#X connect 10 0 8 0;
#X connect 10 0 174 0;
#X connect 11 0 5 0;
#X connect 11 1 6 0;
#X connect 12 0 19 0;
#X connect 13 0 12 0;
#X connect 13 0 53 0;
#X connect 13 0 87 0;
#X connect 13 0 37 0;
#X connect 13 0 99 0;
#X connect 13 0 95 0;
#X connect 14 0 15 0;
#X connect 14 0 13 0;
#X connect 14 0 103 0;
#X connect 15 0 14 1;
#X connect 16 0 20 0;
#X connect 17 0 18 0;
#X connect 18 0 14 1;
#X connect 19 0 21 0;
#X connect 20 0 14 0;
#X connect 20 0 67 0;
#X connect 20 0 161 0;
#X connect 21 0 22 0;
#X connect 21 0 23 0;
#X connect 22 0 24 0;
#X connect 24 0 97 0;
#X connect 25 0 32 0;
#X connect 27 0 30 0;
#X connect 28 0 20 1;
#X connect 29 0 35 0;
#X connect 30 0 33 0;
#X connect 31 0 25 1;
#X connect 32 0 29 1;
#X connect 33 0 29 0;
#X connect 34 0 30 1;
#X connect 35 0 51 0;
#X connect 36 0 69 0;
#X connect 37 0 98 0;
#X connect 39 0 60 0;
#X connect 39 0 58 0;
#X connect 40 0 52 0;
#X connect 41 0 42 0;
#X connect 41 0 40 1;
#X connect 42 0 41 1;
#X connect 43 0 41 1;
#X connect 44 0 40 0;
#X connect 44 1 41 0;
#X connect 45 0 44 0;
#X connect 46 0 63 0;
#X connect 46 0 94 0;
#X connect 48 0 54 0;
#X connect 48 0 39 0;
#X connect 50 0 171 0;
#X connect 53 0 48 0;
#X connect 53 0 50 0;
#X connect 54 0 55 0;
#X connect 55 0 57 0;
#X connect 57 0 56 0;
#X connect 58 0 59 0;
#X connect 59 0 62 0;
#X connect 60 0 61 0;
#X connect 61 0 62 1;
#X connect 62 0 63 1;
#X connect 62 0 66 0;
#X connect 63 0 64 0;
#X connect 65 0 64 1;
#X connect 66 0 67 0;
#X connect 67 0 65 0;
#X connect 68 0 102 0;
#X connect 68 0 9 0;
#X connect 68 0 43 0;
#X connect 68 0 75 0;
#X connect 68 0 83 0;
#X connect 68 0 155 0;
#X connect 68 1 36 1;
#X connect 69 0 71 1;
#X connect 70 0 68 0;
#X connect 70 0 89 0;
#X connect 71 0 76 0;
#X connect 71 0 79 0;
#X connect 72 0 77 0;
#X connect 73 0 74 0;
#X connect 73 0 72 1;
#X connect 74 0 73 1;
#X connect 75 0 73 1;
#X connect 76 0 72 0;
#X connect 76 1 73 0;
#X connect 79 0 84 0;
#X connect 80 0 85 0;
#X connect 81 0 82 0;
#X connect 81 0 80 1;
#X connect 82 0 81 1;
#X connect 83 0 81 1;
#X connect 84 0 80 0;
#X connect 84 1 81 0;
#X connect 87 0 172 0;
#X connect 88 0 91 0;
#X connect 89 0 45 0;
#X connect 90 0 91 1;
#X connect 91 0 96 0;
#X connect 92 0 94 1;
#X connect 94 0 96 0;
#X connect 95 0 101 0;
#X connect 96 0 168 0;
#X connect 97 0 27 0;
#X connect 99 0 100 0;
#X connect 100 0 92 0;
#X connect 101 0 90 0;
#X connect 102 0 0 0;
#X connect 102 0 36 0;
#X connect 103 0 17 0;
#X connect 104 0 105 0;
#X connect 105 0 106 0;
#X connect 107 0 109 0;
#X connect 109 0 108 0;
#X connect 110 0 112 0;
#X connect 112 0 111 0;
#X connect 116 0 110 0;
#X connect 117 0 107 0;
#X connect 118 0 104 0;
#X connect 119 0 26 1;
#X connect 122 0 119 0;
#X connect 124 0 129 0;
#X connect 125 0 139 0;
#X connect 126 0 140 0;
#X connect 128 0 124 0;
#X connect 128 0 125 0;
#X connect 128 0 126 0;
#X connect 128 0 127 0;
#X connect 129 0 130 0;
#X connect 129 1 131 1;
#X connect 130 0 131 0;
#X connect 130 0 133 0;
#X connect 130 0 135 0;
#X connect 130 0 137 0;
#X connect 131 0 132 0;
#X connect 133 0 134 0;
#X connect 135 0 136 0;
#X connect 137 0 138 0;
#X connect 139 0 133 1;
#X connect 142 0 143 0;
#X connect 142 1 146 0;
#X connect 143 0 144 0;
#X connect 144 0 145 0;
#X connect 144 0 149 0;
#X connect 145 0 144 1;
#X connect 146 0 144 1;
#X connect 147 0 151 0;
#X connect 149 0 150 0;
#X connect 149 1 147 1;
#X connect 150 0 147 0;
#X connect 151 0 156 0;
#X connect 152 0 157 0;
#X connect 153 0 154 0;
#X connect 153 0 152 1;
#X connect 154 0 153 1;
#X connect 155 0 153 1;
#X connect 156 0 152 0;
#X connect 156 1 153 0;
#X connect 159 0 166 0;
#X connect 159 0 167 0;
#X connect 160 0 159 0;
#X connect 161 0 162 0;
#X connect 161 0 160 0;
#X connect 161 0 165 0;
#X connect 162 0 161 1;
#X connect 163 0 164 0;
#X connect 164 0 161 1;
#X connect 165 0 163 0;
#X connect 166 0 122 0;
#X connect 167 0 120 0;
#X connect 169 0 50 1;
#X connect 171 0 46 0;
#X connect 172 0 88 0;
#X connect 173 0 171 1;
#X connect 174 0 142 0;
